<svg id="_レイヤー_2" data-name="レイヤー 2" xmlns="http://www.w3.org/2000/svg" viewBox="0 0 292.45 373.12"><defs><linearGradient id="_名称未設定グラデーション_57" data-name="名称未設定グラデーション 57" x1="108.78" y1="315.19" x2="108.78" y2="210.93" gradientUnits="userSpaceOnUse"><stop offset="0"/><stop offset="1" stop-color="#fff"/></linearGradient><linearGradient id="_名称未設定グラデーション_96" data-name="名称未設定グラデーション 96" x1="39.59" y1="130.62" x2="232.96" y2="323.98" gradientUnits="userSpaceOnUse"><stop offset="0" stop-color="#cbebf6"/><stop offset=".5" stop-color="#fff"/><stop offset="1" stop-color="#cbebf6"/></linearGradient><linearGradient id="_名称未設定グラデーション_3" data-name="名称未設定グラデーション 3" x1="80.04" y1="350.46" x2="80.04" y2="132.69" gradientUnits="userSpaceOnUse"><stop offset="0" stop-color="#fff"/><stop offset="1" stop-color="#cbebf6"/></linearGradient><filter id="luminosity-noclip" x="-90.02" y="0" width="397.6" height="378.16" color-interpolation-filters="sRGB" filterUnits="userSpaceOnUse"><feFlood flood-color="#fff" result="bg"/><feBlend in="SourceGraphic" in2="bg"/></filter><filter id="drop-shadow-1" filterUnits="userSpaceOnUse"><feOffset dx="3.36" dy="3.36"/><feGaussianBlur result="blur" stdDeviation="5.6"/><feFlood flood-color="#004ea2" flood-opacity=".5"/><feComposite in2="blur" operator="in"/><feComposite in="SourceGraphic"/></filter><clipPath id="clippath"><rect x="67.22" y="97.18" width="138.11" height="260.24" rx="9.92" ry="9.92" style="fill:none;stroke-width:0"/></clipPath><style>.cls-15{fill:none;stroke-linecap:round;stroke-linejoin:round;stroke:#fff;stroke-width:3.47px}</style><mask id="mask" x="-90.02" y="0" width="397.6" height="378.16" maskUnits="userSpaceOnUse"><g style="filter:url(#luminosity-noclip)"><path style="fill:url(#_名称未設定グラデーション_57);stroke-width:0" d="M-90.02 109h397.6v269.16h-397.6z"/></g></mask></defs><g style="mask:url(#mask)" id="_レイヤー_1-2" data-name="レイヤー 1"><rect x="64.03" y="81.49" width="158.09" height="291.63" rx="13.52" ry="13.52" style="fill:#ebf3f6;stroke-width:0"/><rect x="57.23" y="81.49" width="158.09" height="291.63" rx="13.52" ry="13.52" style="fill:#b1daf6;stroke-width:0"/><rect x="67.22" y="97.18" width="138.11" height="260.24" rx="9.92" ry="9.92" style="fill:url(#_名称未設定グラデーション_96);stroke-width:0"/><g style="clip-path:url(#clippath)"><path transform="rotate(45 146.23 146.23)" style="fill:#fff;opacity:.5;stroke-width:0" d="M135.98-50.32h20.5v393.09h-20.5z"/><path transform="rotate(45 146.23 193.86)" style="fill:#fff;stroke-width:0" d="M135.98-2.69h20.5V390.4h-20.5z"/></g><rect x="67.22" y="97.18" width="138.11" height="260.24" rx="9.92" ry="9.92" style="stroke-linecap:round;stroke-linejoin:round;stroke:#a8d2ff;stroke-width:2.91px;fill:none"/><g style="filter:url(#drop-shadow-1)"><rect x="5.26" y="122.54" width="149.56" height="233.52" rx="16.86" ry="16.86" style="fill:url(#_名称未設定グラデーション_3);stroke-width:0"/><circle cx="49.63" cy="160.67" r="20.03" style="fill:#90cdff;stroke-width:0"/><path class="cls-15" d="m41.87 161.27 5.17 4.17 10.35-9.55"/><circle cx="49.63" cy="263.3" r="20.03" style="fill:#90cdff;opacity:.7;stroke-width:0"/><path class="cls-15" d="m41.87 263.9 5.17 4.18 10.35-9.56"/><circle cx="49.63" cy="314.61" r="20.03" style="opacity:.5;fill:#90cdff;stroke-width:0"/><path class="cls-15" d="m41.87 315.21 5.17 4.18 10.35-9.55"/><circle cx="49.63" cy="211.98" r="20.03" style="fill:#a4dfbb;stroke-width:0"/><path class="cls-15" d="m41.87 212.58 5.17 4.18 10.35-9.55M78.05 155h48.21m-48.21 11.34h25.93m-25.93 39.97h48.21m-48.21 11.35h25.93m-25.93 39.97h48.21m-48.21 11.34h25.93m-25.93 39.97h48.21m-48.21 11.35h25.93"/></g></g></svg>