<svg id="_レイヤー_2" data-name="レイヤー 2" xmlns="http://www.w3.org/2000/svg" viewBox="0 0 259.59 292.99"><defs><linearGradient id="_名称未設定グラデーション_555" data-name="名称未設定グラデーション 555" x1="225.36" y1="56.6" x2="225.36" y2="109.15" gradientUnits="userSpaceOnUse"><stop offset="0" stop-color="#83dad8"/><stop offset="1" stop-color="#b1e9ee"/></linearGradient><linearGradient id="_名称未設定グラデーション_57" data-name="名称未設定グラデーション 57" x1="100.05" y1="283.23" x2="100.05" y2="163.7" gradientUnits="userSpaceOnUse"><stop offset="0"/><stop offset="1" stop-color="#fff"/></linearGradient><filter id="luminosity-noclip" x="-127.87" y="-.37" width="455.85" height="308.59" color-interpolation-filters="sRGB" filterUnits="userSpaceOnUse"><feFlood flood-color="#fff" result="bg"/><feBlend in="SourceGraphic" in2="bg"/></filter><style>.cls-10,.cls-13,.cls-3,.cls-6,.cls-8{stroke-width:0}.cls-3{fill:#fad5bb}.cls-6{fill:#cbebf6}.cls-8{fill:#9cc3e6}.cls-10{fill:#fff}.cls-13{fill:#02384f}</style><mask id="mask" x="-127.87" y="-.37" width="455.85" height="308.59" maskUnits="userSpaceOnUse"><g style="filter:url(#luminosity-noclip)"><path style="stroke-width:0;fill:url(#_名称未設定グラデーション_57)" d="M-127.87-.37h455.85v308.59h-455.85z"/></g></mask></defs><g id="_レイヤー_1-2" data-name="レイヤー 1"><path d="M240.96 54.29c-6.54 0-12.28 3.42-15.61 8.59-3.32-5.17-9.07-8.59-15.61-8.59-10.29 0-18.63 8.45-18.63 18.88 0 24.92 34.24 39.02 34.24 39.02s34.24-14.1 34.24-39.02c0-10.43-8.34-18.88-18.63-18.88Z" style="fill:url(#_名称未設定グラデーション_555);stroke-width:0"/><g style="mask:url(#mask)"><path class="cls-3" d="M16.96 237.26s3 6.04 2.89 10.08c-.11 4.03-1.55 13.37-3.1 12.36-1.55-1-1.67-4.32-1.78-7.31-.11-3.15.11-4.03-1.22-5.92 0 0-.66 2.65-.55 5.8.08 2.23 2.89 10.08.45 12.61 0 0-1.22 1.26-3.11-2.01 0 0-1.55-1-3.66-3.39 0 0-1.55-1-2.89-2.89-1.33-1.89-3-6.04-3.11-9.2s1.1-11.6 5.87-19.81l10.22 9.68Z"/><path class="cls-10" d="M19 239.58c-12-3-18 2-18 2v-6h18s.97 4.24 0 4Z"/><path class="cls-8" d="M0 239.58s7-6 21-2v-33l13-70s-1-20-13-50c0 0-4-1-12 50s-9 74-9 105Z"/><path class="cls-8" d="m21 84.58 60-20 57 16-10 95 6.04 108s-54.12 19-104.07 3l7.04-110-3-42-13-50Z"/><path class="cls-8" d="M50 80.58c0-1 7-13 12-15s10-4 19-5 15.2 1.75 19 5c4.24 3.62 16.64 13.36 8 16 0 0-19.93 13.73-40.47 10.36S50 80.58 50 80.58Z"/><path class="cls-10" d="M59 87.58s.19-17.19 4-21c2-2 8.94-5 18-5s15 2 18 6 5 17 5 17l-45 3Z"/><path class="cls-8" d="m138 80.58 29 67 26-10s12 1 8 13l-34 22s-10 10-19-5l-38-69 28-18Z"/><path d="m65 88-1-44 32.98 2.05s-3.27 28.89 6.21 45.05c0 0-17.39 17.33-38.19-3.1Z" style="fill:#eec6af;stroke-width:0"/><path d="M98.24 35.11c1.03-2.99 6.4-3.48 6.89 1.89.42 4.62-2.84 8.77-6.45 8.67" style="fill:#eac6ae;stroke-width:0"/><path class="cls-13" d="M102.22 18.49c.81 4.12 2.27 17.09-.86 16.79-2.28-.22-1.79-13.21-6.2-15.17-1.13-.5-1.21-16.82 1.89-12.68 0 0 3.62 3.24 5.16 11.06Z"/><path class="cls-3" d="M64.24 49c-.1 2.6 1.04 5 2.52 7.38 3.61 5.8 12.24 11.46 19.2 11.15 5.39-.24 9.02-6.03 10.98-10.44 3.88-8.72 2.14-11.69 2.82-21.2 0 0 2.88-28.6-24.06-20.74-19.73 5.75-12.45 23.33-12.45 23.33-1.42-2.82-6.82-2.58-6.57 2.81.21 4.64 4.01 8.3 7.57 7.71"/><path class="cls-13" d="M98 18c-1 2-11-4-11-4-1.31.8-7.85 3.31-12 4-6 1-8.54 5.57-8.75 6.27-1.35 4.44-.74 9.27.19 13.94.2.99 1.9 5.37-.38 5.15l-2.6-4.85c-2.06-2.5-4.41-1.96-6.08-.59-.51-.94-4.39-6.91-4.39-14.91 0-4.28 2.13-7.92 4.5-11.75 1.97-3.19 5.31-5.24 8.52-7.17C68.54 2.57 71.12 1.03 74 .38c3.11-.7 6.35-.31 9.49.27 5.09.95 10.46 2.63 13.56 6.78L97.99 18Z"/><path class="cls-13" d="M91 11s7 0 8-11c0 0-2 2-4 3V0s-1.26 2.4-5.13 2.7S91 11 91 11Z"/><path d="M122 222.58c-39 16-72 5-72 5s7.02-44.91 6-63c-4-71 57.53-53.82 61-24 5 43 5 82 5 82Z" style="fill:#cbebff;stroke-width:0"/><path class="cls-10" d="M122 216.58c-39 16-71 5-71 5s6.02-44.91 5-63c-4-71 6-90 6-90s15.27 16.95 22 16c5.64-.8 14-18 14-18s15.53 38.18 19 68c5 43 5 82 5 82Z"/><path class="cls-6" d="M62 71.58s8 8 19 14l-8 11s-11-6-13.44-17.52L62 71.58Z"/><path class="cls-10" d="M62 68.58s8 10 19 16l-8 9s-11-7-13.44-17.52L62 68.58Z"/><path class="cls-6" d="M99 69.58s-2.23 4.85-11 15l11.62 7.08S103 88.58 103 77.58l-4-8Z"/><path class="cls-10" d="M98 66.58s-2.23 6.85-11 17l11.62 5.08S102 82.58 102 74.58l-4-8Z"/><path d="M87 92.58s3-6 3-8c-3-2-13 0-12 4l4 4s-2 82-6 98c-1.41 5.66 12 18 14 18s10.69-14.02 11-16c3-19-14-100-14-100Z" style="fill:#9edad4;stroke-width:0"/><circle class="cls-10" cx="194.5" cy="145.08" r="6.5"/><path class="cls-3" d="M190 143.58s4-2 7-7 10-3 14-6 6.68-6.21 7-4c1 7-8 7-7 9s13 4 17 2 8-6 10-5c4 2-9 10-21 15-11 1-16 0-19 1s-5 3-7 1c-3-3-1-6-1-6Z"/><path class="cls-3" d="M214.25 140.6s7.99-4.25 8.3-5.57-2.37-1.74-4.03-.63c-1.66 1.11-3.32 2.23-6.33 3.13l2.06 3.06Z"/><path class="cls-3" d="M219.93 141.76s10.42-5.66 10.99-7.19c.57-1.53-2.68-1.71-4.88-.27s-7.17 4.31-11 5.66l4.89 1.8Z"/><path style="fill:#b0e1ff;stroke-width:0" d="m97 231.07-16 1.17v-8.15l16-1.17v8.15z"/><path d="M52.5 76.78 40.96 98.62l6.05 8.73-4.22 10.6 10.41 32.38-8.42-32.16L49 107.58l-5.06-8.63 8.56-22.17zm55.02-3.13 15.57 18.11-4.24 9.25 6.2 9.05-3.93 32.03 2.02-31.45-6.2-9.04 3.29-8.97-12.71-18.98z" style="fill:#89afd8;stroke-width:0"/></g></g></svg>