<svg data-name="レイヤー 2" xmlns="http://www.w3.org/2000/svg" viewBox="0 0 574.15 413.67"><defs><linearGradient id="a" data-name="名称未設定グラデーション 21" x1="446.83" y1="187.36" x2="446.83" y2="5.03" gradientUnits="userSpaceOnUse"><stop offset="0" stop-color="#fff"/><stop offset="1" stop-color="#b1daf6"/></linearGradient><linearGradient id="b" data-name="名称未設定グラデーション 23" x1="330.67" y1="193.27" x2="330.67" y2="140.25" gradientUnits="userSpaceOnUse"><stop offset="0" stop-color="#b1daf6"/><stop offset="1" stop-color="#fff"/></linearGradient><linearGradient id="c" data-name="名称未設定グラデーション 22" x1="170.92" y1="411.78" x2="170.92" y2="145.14" gradientUnits="userSpaceOnUse"><stop offset="0" stop-color="#fff" stop-opacity="0"/><stop offset="1" stop-color="#b1daf6"/></linearGradient></defs><g data-name="レイヤー 1"><path style="stroke-width:0;fill:url(#a)" d="M394.95 188.65H319.5l133.73-140.5L388.51 0h185.64l-179.2 188.65z"/><path d="M341.85 142.98c-17.07-2.65-32.95-7.94-75.29 0 33.73 9.27 28.44 29.78 52.95 45.67-.02 0 31.08 11.25 75.29 0-28.98-15.22-35.67-42.99-52.95-45.67Z" style="fill:url(#b);stroke-width:0"/><path d="M341.85 142.98c-11.11-6.62-57.92-7.25-75.29 0C204.72 168.8 0 413.67 0 413.67h75.29s238.24-273.33 266.56-270.69Z" style="fill:url(#c);stroke-width:0"/></g></svg>