<svg id="_レイヤー_2" data-name="レイヤー 2" xmlns="http://www.w3.org/2000/svg" xmlns:xlink="http://www.w3.org/1999/xlink" viewBox="0 0 275.56 166.2"><defs><linearGradient id="_名称未設定グラデーション_12" data-name="名称未設定グラデーション 12" x1="201.75" y1="63.55" x2="248.43" y2="63.55" gradientUnits="userSpaceOnUse"><stop offset="0" stop-color="#e4e4e4"/><stop offset="1" stop-color="#fff"/></linearGradient><linearGradient id="_名称未設定グラデーション_12-2" data-name="名称未設定グラデーション 12" x1="210.75" y1="45.55" x2="257.43" y2="45.55" xlink:href="#_名称未設定グラデーション_12"/><linearGradient id="_名称未設定グラデーション_11" data-name="名称未設定グラデーション 11" x1="210.78" y1="27.33" x2="257.45" y2="27.33" gradientTransform="rotate(180 234.115 27.325)" gradientUnits="userSpaceOnUse"><stop offset="0" stop-color="#fff"/><stop offset="1" stop-color="#e4e4e4"/></linearGradient><linearGradient id="_名称未設定グラデーション_12-3" data-name="名称未設定グラデーション 12" x1="195.45" y1="9.11" x2="222.12" y2="9.11" xlink:href="#_名称未設定グラデーション_12"/><linearGradient id="_名称未設定グラデーション_12-4" data-name="名称未設定グラデーション 12" x1="2.75" x2="49.43" xlink:href="#_名称未設定グラデーション_12"/><linearGradient id="_名称未設定グラデーション_12-5" data-name="名称未設定グラデーション 12" x1="8.75" y1="45.55" x2="35.43" y2="45.55" xlink:href="#_名称未設定グラデーション_12"/><linearGradient id="_名称未設定グラデーション_11-2" data-name="名称未設定グラデーション 11" x1="21.23" x2="67.9" gradientTransform="rotate(180 44.56 27.325)" xlink:href="#_名称未設定グラデーション_11"/><linearGradient id="_名称未設定グラデーション_11-3" data-name="名称未設定グラデーション 11" x1="61.23" y1="9.33" x2="87.9" y2="9.33" gradientTransform="rotate(180 74.56 9.325)" xlink:href="#_名称未設定グラデーション_11"/><style>.cls-10,.cls-12,.cls-9{stroke-width:0}.cls-14{fill:none;stroke:#cacaca;stroke-linecap:round;stroke-linejoin:round;stroke-width:.5px}.cls-9{fill:#73c09d}.cls-10{fill:#59a3d2}.cls-12{fill:#86ccee}</style></defs><g id="_レイヤー_1-2" data-name="レイヤー 1"><path class="cls-12" d="M82.5 158.05c0-12.15 23.06-22 51.5-22s51.5 9.85 51.5 22h-103Z"/><path class="cls-12" d="M77.86 154.89h112.28v11.31H77.86z"/><path class="cls-12" d="M134 93.05c6.07 0 11 4.93 11 11v51h-22v-51c0-6.07 4.93-11 11-11Z"/><path class="cls-10" d="M201.75 54.44h55.69c5.03 0 9.11 4.08 9.11 9.11 0 5.03-4.08 9.11-9.11 9.11h-55.69V54.44Z"/><path d="M201.75 55.35h38.48c4.52 0 8.19 3.67 8.19 8.19s-3.67 8.19-8.19 8.19h-38.48V55.35Z" style="fill:url(#_名称未設定グラデーション_12);stroke-width:0"/><path class="cls-14" d="M201.75 58.33h39.23m-39.23 3.73h43.45m-43.45 3.72h43.7m-43.7 3.72h39.97"/><path d="M210.75 36.44h55.69c5.03 0 9.11 4.08 9.11 9.11 0 5.03-4.08 9.11-9.11 9.11h-55.69V36.44Z" style="fill:#006d83;stroke-width:0"/><path d="M210.75 37.35h38.48c4.52 0 8.19 3.67 8.19 8.19s-3.67 8.19-8.19 8.19h-38.48V37.35Z" style="fill:url(#_名称未設定グラデーション_12-2);stroke-width:0"/><path class="cls-14" d="M210.75 40.33h39.23m-39.23 3.73h43.45m-43.45 3.72h43.7m-43.7 3.72h39.97"/><path class="cls-10" d="M192.65 18.22h55.69c5.03 0 9.11 4.08 9.11 9.11 0 5.03-4.08 9.11-9.11 9.11h-55.69V18.22Z" transform="rotate(-180 225.045 27.325)"/><path d="M210.78 19.13h38.48c4.52 0 8.19 3.67 8.19 8.19s-3.67 8.19-8.19 8.19h-38.48V19.13Z" transform="rotate(-180 234.115 27.325)" style="fill:url(#_名称未設定グラデーション_11);stroke-width:0"/><path class="cls-14" d="M257.45 22.11h-39.22m39.22 3.73H214m43.45 3.72h-43.69m43.69 3.73h-39.97"/><path class="cls-9" d="M195.45 0h65.69c5.03 0 9.11 4.08 9.11 9.11 0 5.03-4.08 9.11-9.11 9.11h-65.69V0Z"/><path d="M195.45.92h18.48c4.52 0 8.19 3.67 8.19 8.19s-3.67 8.19-8.19 8.19h-18.48V.92Z" style="fill:url(#_名称未設定グラデーション_12-3);stroke-width:0"/><path class="cls-14" d="M195.45 3.9h19.22m-19.22 3.72h23.44m-23.44 3.72h23.69m-23.69 3.73h19.97"/><path class="cls-10" d="M2.75 54.44h55.69c5.03 0 9.11 4.08 9.11 9.11 0 5.03-4.08 9.11-9.11 9.11H2.75V54.44Z"/><path d="M2.75 55.35h38.48c4.52 0 8.19 3.67 8.19 8.19s-3.67 8.19-8.19 8.19H2.75V55.35Z" style="fill:url(#_名称未設定グラデーション_12-4);stroke-width:0"/><path class="cls-14" d="M2.75 58.33h39.23M2.75 62.06H46.2M2.75 65.78h43.7M2.75 69.5h39.97"/><path class="cls-9" d="M8.75 36.44h65.69c5.03 0 9.11 4.08 9.11 9.11 0 5.03-4.08 9.11-9.11 9.11H8.75V36.44Z"/><path d="M8.75 37.35h18.48c4.52 0 8.19 3.67 8.19 8.19s-3.67 8.19-8.19 8.19H8.75V37.35Z" style="stroke-width:0;fill:url(#_名称未設定グラデーション_12-5)"/><path class="cls-14" d="M8.75 40.33h19.23M8.75 44.06H32.2M8.75 47.78h23.7M8.75 51.5h19.97"/><path class="cls-10" d="M3.09 18.22h55.69c5.03 0 9.11 4.08 9.11 9.11 0 5.03-4.08 9.11-9.11 9.11H3.09V18.22Z" transform="rotate(-180 35.495 27.325)"/><path d="M21.23 19.13h38.48c4.52 0 8.19 3.67 8.19 8.19s-3.67 8.19-8.19 8.19H21.23V19.13Z" transform="rotate(-180 44.56 27.325)" style="fill:url(#_名称未設定グラデーション_11-2);stroke-width:0"/><path class="cls-14" d="M67.9 22.11H28.67m39.23 3.73H24.45m43.45 3.72H24.2m43.7 3.73H27.93"/><path d="M23.09.22h55.69c5.03 0 9.11 4.08 9.11 9.11 0 5.03-4.08 9.11-9.11 9.11H23.09V.22Z" transform="rotate(-180 55.495 9.325)" style="fill:#3278a7;stroke-width:0"/><path d="M61.23 1.13h18.48c4.52 0 8.19 3.67 8.19 8.19s-3.67 8.19-8.19 8.19H61.23V1.13Z" transform="rotate(-180 74.56 9.325)" style="fill:url(#_名称未設定グラデーション_11-3);stroke-width:0"/><path class="cls-14" d="M87.9 4.11H68.67M87.9 7.84H64.45m23.45 3.72H64.2m23.7 3.73H67.93"/><path class="cls-12" d="M18.5 92.05h231v6h-231zM72 77.81c0 5.45-16.12 9.87-36 9.87S0 83.26 0 77.81h72Zm196 .1c0 5.45-16.12 9.87-36 9.87s-36-4.42-36-9.87h72Z"/></g></svg>