<svg id="_レイヤー_2" data-name="レイヤー 2" xmlns="http://www.w3.org/2000/svg" viewBox="0 0 62 76.44"><defs><style>.cls-1,.cls-2{fill:#080058;stroke-width:0}.cls-2{fill:#fff}</style></defs><g id="_レイヤー_1-2" data-name="レイヤー 1"><path class="cls-1" d="M0 0h62v62H0z"/><path class="cls-2" d="M6.68 32.59h21.2v5.66H6.68zm22.72 7.15H5.17v5.82H22.7c.08 3.88-1.75 5.19-7.3 5.3H6.68v5.96h10.47c5.06.03 9.48-2.05 10.93-5.16 1.09-2.32 1.34-4.54 1.31-11.92ZM40.25 5.17V12c5.27-.63 11.18-1.67 14.76-2.54v6.53c-3.14.66-4.97.96-14.76 2.35v2.49c-.03 1.94.46 2.4 2.6 2.4h12.87v6.18H40.33c-2.3 0-4.32-.68-5.44-1.83-.98-1.09-1.17-1.8-1.17-4.67V5.17h6.53Zm13.05 0h3.53V8.7H53.3z"/><path class="cls-2" d="M49.03 5.17h3.53V8.7h-3.53zM47.88 32.6h-6.29v4.32H32.6v5.79h8.99v14.12h6.29V42.71h8.95v-5.79h-8.95V32.6z"/><path class="cls-2" d="M53.3 32.6h3.53v3.53H53.3zm-4.27 0h3.53v3.53h-3.53zM34.68 47.66c-.03 1.86-.61 2.66-2.07 2.83v5.77c4.94 0 8.14-2.86 7.98-7.19V44.1h-5.9v3.55Zm20.05-.2V44.1h-5.88v5c0 2.19.68 3.96 2.05 5.22 1.26 1.2 3.31 1.97 5.25 1.97.15 0 .38 0 .68-.02v-5.78c-1.67-.25-2.1-.86-2.1-3.02ZM25.39 9.36V5.18h-6.62v4.18H5.17v5.93h8.44l-3.47 5.28c-1.24 1.85-2.21 2.4-4.25 2.36h-.71v5.93h.71c4.96 0 7.07-1.03 9.09-4.35l3.8-6.34v11.24h6.62V15.3h4.01V9.37H25.4Z"/><path class="cls-1" d="M0 72.07c0-2.58 1.88-4.3 4.67-4.3s4.67 1.72 4.67 4.3-1.88 4.29-4.67 4.29S0 74.67 0 72.07Zm6.03.02c0-1.29-.61-1.77-1.36-1.77s-1.35.48-1.35 1.77.57 1.72 1.35 1.72 1.36-.43 1.36-1.72Zm14.07-.04c0 2.6-1.34 4.3-3.52 4.3-1.25 0-2.06-.56-2.54-1.42v1.23h-3.22V64.81h3.31V69c.49-.76 1.28-1.26 2.44-1.26 2.18 0 3.52 1.71 3.52 4.3Zm-3.32-.02c0-1.15-.49-1.74-1.4-1.74s-1.39.59-1.39 1.74.48 1.75 1.39 1.75 1.4-.61 1.4-1.75Zm4.81-7.25h3.31v2.49h-3.31v-2.49Zm0 3.16h3.31v8.23h-3.31v-8.23Zm5.1-3.12H30v11.35h-3.31V64.82Zm10.68 11.35a2.51 2.51 0 0 1-.24-.96c-.45.76-1.34 1.23-2.64 1.23-1.74 0-3.03-.8-3.03-2.53 0-1.43.88-2.33 3.14-2.55l1.5-.14c.67-.06.99-.19.99-.62s-.32-.61-.92-.61c-.64 0-.94.19-.99.81h-3.32c.08-2.01 1.31-3.04 4.35-3.04s4.19.96 4.19 2.63v4.48c0 .46.1.88.3 1.31h-3.33Zm-.29-3.14v-.54c-.13.19-.35.29-.72.34l-.77.1c-.52.06-.78.29-.78.72 0 .49.34.73.97.73.85 0 1.29-.45 1.29-1.34Zm14.4-.98c0 2.6-1.34 4.3-3.52 4.3-1.25 0-2.06-.56-2.54-1.42v1.23H42.2V64.81h3.31V69c.49-.76 1.28-1.26 2.44-1.26 2.18 0 3.52 1.71 3.52 4.3Zm-3.32-.02c0-1.15-.49-1.74-1.4-1.74s-1.39.59-1.39 1.74.48 1.75 1.39 1.75 1.4-.61 1.4-1.75Zm4.5.04c0-2.58 1.88-4.3 4.67-4.3S62 69.49 62 72.07s-1.88 4.29-4.67 4.29-4.67-1.69-4.67-4.29Zm6.03.02c0-1.29-.61-1.77-1.36-1.77s-1.35.48-1.35 1.77.57 1.72 1.35 1.72 1.36-.43 1.36-1.72Z"/></g></svg>