<svg width="8" height="141" fill="none" xmlns="http://www.w3.org/2000/svg"><g clip-path="url(#a)"><path d="M1.73 1.49a.99.99 0 0 0-.36.31c-.09.13-.16.28-.21.45-.05.17-.07.35-.07.54 0 .13 0 .26.03.41.02.14.06.28.12.41.06.13.14.23.25.31.1.08.24.13.4.13.17 0 .31-.06.42-.17.11-.11.2-.26.27-.44s.13-.38.19-.61c.05-.23.11-.46.18-.69.06-.24.13-.47.22-.7.09-.23.2-.43.34-.61s.31-.33.52-.44c.21-.11.46-.17.75-.17.33 0 .62.07.86.21.24.14.45.33.61.55.16.23.28.49.36.77.08.28.12.58.12.86 0 .34-.04.66-.11.97-.08.31-.2.58-.37.82-.17.24-.38.43-.64.57-.26.14-.58.21-.95.21V3.81c.19-.01.35-.05.48-.12.13-.07.22-.16.3-.28.07-.11.12-.24.15-.39.03-.15.05-.31.05-.48 0-.11-.01-.23-.04-.34a.852.852 0 0 0-.36-.54.593.593 0 0 0-.34-.09.57.57 0 0 0-.31.07c-.08.05-.15.14-.22.28s-.13.34-.2.58c-.07.25-.15.58-.25.98-.02.12-.07.29-.13.5-.06.21-.16.42-.3.63-.14.21-.32.39-.55.54-.23.15-.53.23-.89.23-.29 0-.57-.06-.82-.17C.98 5.1.76 4.93.58 4.7.4 4.48.25 4.2.15 3.86.05 3.53 0 3.14 0 2.7c0-.35.04-.7.13-1.03.09-.33.22-.63.41-.88.19-.25.42-.46.71-.61C1.54.07 1.88 0 2.28 0v1.37c-.22 0-.4.04-.55.12Zm3.13 10.68c.13-.08.25-.19.36-.32a1.416 1.416 0 0 0 .32-.93c0-.32-.06-.59-.18-.81-.12-.22-.29-.4-.49-.54-.21-.14-.44-.24-.71-.3a3.68 3.68 0 0 0-1.61 0c-.25.06-.48.16-.69.3-.2.14-.37.32-.49.54-.12.22-.18.49-.18.81 0 .43.13.77.4 1.01.26.24.61.39 1.04.45v1.37c-.4-.04-.76-.13-1.09-.28-.32-.15-.6-.35-.83-.59-.23-.25-.4-.53-.52-.86-.12-.33-.18-.69-.18-1.09 0-.49.08-.93.26-1.33.17-.39.41-.72.71-1 .3-.27.65-.48 1.06-.62.4-.14.84-.22 1.31-.22.47 0 .93.07 1.34.22.41.14.77.35 1.08.62.31.27.55.6.72 1 .17.39.26.83.26 1.33 0 .35-.05.69-.15 1-.1.31-.25.6-.45.85s-.44.45-.72.62c-.28.17-.62.26-.99.31v-1.37c.16-.02.31-.08.45-.16l-.03-.01Zm1.71 7.81c0 .29-.05.55-.14.78a1.714 1.714 0 0 1-1.63 1.1c-.38 0-.71-.08-.98-.24-.27-.16-.49-.42-.63-.78h-.02c-.05.17-.12.32-.22.43-.1.11-.22.21-.35.28-.13.07-.28.12-.45.16-.17.04-.32.06-.49.07-.1 0-.22.01-.36.02-.14 0-.28.02-.42.03-.14.01-.28.04-.41.07-.13.03-.24.08-.33.15v-1.41c.2-.08.45-.13.73-.14.28-.02.55-.04.81-.08.34-.05.58-.15.74-.31.16-.16.23-.41.23-.76v-1.41H.14v-1.41h6.43v3.46-.01Zm-2.91-.5c0 .32.07.57.22.73.14.16.38.24.7.24.32 0 .54-.08.68-.24.14-.16.21-.4.21-.73v-1.55H3.66v1.55Zm1.01 5.27c.41.14.77.35 1.08.62.31.27.55.6.72 1 .17.39.26.83.26 1.33 0 .5-.09.94-.26 1.33-.17.39-.41.72-.72.99s-.66.48-1.08.62c-.41.14-.86.22-1.34.22-.48 0-.9-.07-1.31-.22-.41-.14-.76-.35-1.06-.62-.3-.27-.54-.6-.71-.99-.17-.39-.26-.83-.26-1.33 0-.5.08-.93.26-1.33.17-.39.41-.72.71-1 .3-.27.65-.48 1.06-.62.4-.14.84-.22 1.31-.22.47 0 .93.07 1.34.22Zm-2.12 1.29c-.25.06-.48.16-.69.3-.2.14-.37.32-.49.54-.12.22-.18.49-.18.81 0 .32.06.59.18.81.12.22.29.4.49.54s.43.24.69.3c.25.06.52.09.79.09s.56-.03.82-.09c.26-.06.5-.16.71-.3.21-.14.37-.32.49-.54.12-.22.18-.49.18-.81 0-.32-.06-.59-.18-.81-.12-.22-.29-.4-.49-.54-.21-.14-.44-.24-.71-.3a3.68 3.68 0 0 0-1.61 0Zm4.02 8.99H1.33v3.13H.14v-4.54h6.43v1.41Zm0 7.14H1.33v3.13H.14v-4.54h6.43v1.41Z" fill="#2E3190"/><path d="M1.75 56.1v82l5-10.5" stroke="#2E3190" stroke-miterlimit="10"/></g><defs><clipPath id="a"><path fill="#fff" d="M0 0h7.2v140.31H0z"/></clipPath></defs></svg>